<svg width="56" height="56" viewBox="0 0 56 56" fill="none" xmlns="http://www.w3.org/2000/svg">
<path d="M39.666 30.3333H16.3327V25.6666H39.666M27.9994 4.66663C24.9352 4.66663 21.901 5.27016 19.0701 6.44277C16.2391 7.61538 13.6669 9.3341 11.5002 11.5008C7.12434 15.8767 4.66602 21.8116 4.66602 28C4.66602 34.1883 7.12434 40.1233 11.5002 44.4991C13.6669 46.6658 16.2391 48.3845 19.0701 49.5572C21.901 50.7298 24.9352 51.3333 27.9994 51.3333C34.1877 51.3333 40.1227 48.875 44.4985 44.4991C48.8744 40.1233 51.3327 34.1883 51.3327 28C51.3327 24.9358 50.7292 21.9016 49.5565 19.0707C48.3839 16.2397 46.6652 13.6675 44.4985 11.5008C42.3318 9.3341 39.7596 7.61538 36.9286 6.44277C34.0977 5.27016 31.0635 4.66663 27.9994 4.66663Z" fill="#D7263D"/>
</svg>
