<svg width="85" height="85" viewBox="0 0 85 85" fill="none" xmlns="http://www.w3.org/2000/svg">
<path d="M42.5 8.63281C35.8017 8.63281 29.2538 10.6191 23.6844 14.3405C18.115 18.0618 13.7741 23.3512 11.2108 29.5396C8.64749 35.728 7.9768 42.5376 9.28358 49.1072C10.5903 55.6768 13.8159 61.7113 18.5523 66.4477C23.2887 71.1841 29.3233 74.4097 35.8929 75.7164C42.4624 77.0232 49.272 76.3525 55.4604 73.7892C61.6488 71.2259 66.9382 66.885 70.6596 61.3156C74.3809 55.7462 76.3672 49.1983 76.3672 42.5C76.3567 33.5211 72.7851 24.913 66.4361 18.5639C60.087 12.2149 51.4789 8.64336 42.5 8.63281ZM23.7203 65.7422C25.6687 62.5024 28.422 59.8218 31.7127 57.9609C35.0034 56.0999 38.7195 55.1219 42.5 55.1219C46.2805 55.1219 49.9967 56.0999 53.2874 57.9609C56.5781 59.8218 59.3314 62.5024 61.2797 65.7422C55.9684 70.0491 49.3381 72.3995 42.5 72.3995C35.6619 72.3995 29.0316 70.0491 23.7203 65.7422ZM31.211 39.8438C31.211 37.611 31.873 35.4284 33.1135 33.5719C34.354 31.7154 36.1171 30.2685 38.1799 29.414C40.2427 28.5596 42.5125 28.336 44.7024 28.7716C46.8923 29.2072 48.9038 30.2824 50.4826 31.8612C52.0614 33.44 53.1366 35.4515 53.5722 37.6414C54.0078 39.8312 53.7842 42.1011 52.9298 44.1639C52.0753 46.2267 50.6284 47.9898 48.7719 49.2303C46.9154 50.4707 44.7328 51.1328 42.5 51.1328C39.506 51.1328 36.6346 49.9434 34.5174 47.8263C32.4003 45.7092 31.211 42.8378 31.211 39.8438ZM64.2514 62.9664C61.1212 58.0993 56.4425 54.4288 50.9701 52.5473C53.6989 50.7298 55.7703 48.0825 56.8783 44.9967C57.9862 41.911 58.0718 38.5506 57.1224 35.4125C56.1729 32.2744 54.2389 29.525 51.6062 27.571C48.9735 25.617 45.7819 24.562 42.5033 24.562C39.2247 24.562 36.0331 25.617 33.4005 27.571C30.7678 29.525 28.8337 32.2744 27.8843 35.4125C26.9349 38.5506 27.0205 41.911 28.1284 44.9967C29.2363 48.0825 31.3078 50.7298 34.0365 52.5473C28.5642 54.4288 23.8854 58.0993 20.7553 62.9664C16.7537 58.72 14.0829 53.395 13.0722 47.6485C12.0616 41.9019 12.7553 35.9852 15.0679 30.6283C17.3805 25.2714 21.2108 20.7088 26.0861 17.5032C30.9615 14.2977 36.6686 12.5896 42.5033 12.5896C48.3381 12.5896 54.0452 14.2977 58.9205 17.5032C63.7959 20.7088 67.6261 25.2714 69.9387 30.6283C72.2513 35.9852 72.9451 41.9019 71.9345 47.6485C70.9238 53.395 68.2529 58.72 64.2514 62.9664Z" fill="#FF8393"/>
</svg>
