<svg width="144" height="144" viewBox="0 0 144 144" fill="none" xmlns="http://www.w3.org/2000/svg">
<path d="M120 73.1999V83.3999C120 102.3 109.2 110.4 93 110.4H39C22.8 110.4 12 102.3 12 83.3999V50.9999C12 32.0999 22.8 23.9999 39 23.9999H55.2C54.42 26.2799 54 28.7999 54 31.4999V54.8999C54 60.7199 55.92 65.6399 59.34 69.0599C62.76 72.4799 67.68 74.3999 73.5 74.3999V82.7399C73.5 85.7999 76.98 87.6599 79.56 85.9799L96.9 74.3999H112.5C115.2 74.3999 117.72 73.9799 120 73.1999Z" stroke="white" stroke-width="9" stroke-miterlimit="10" stroke-linecap="round" stroke-linejoin="round"/>
<path d="M44.3994 132H87.5994M65.9994 110.4V132M131.999 31.5001V54.9001C131.999 63.8401 127.439 70.5601 119.999 73.2001C117.719 73.9801 115.199 74.4001 112.499 74.4001H96.8994L79.5594 85.9801C76.9794 87.6601 73.4994 85.8001 73.4994 82.7401V74.4001C67.6794 74.4001 62.7594 72.4801 59.3394 69.0601C55.9194 65.6401 53.9994 60.7201 53.9994 54.9001V31.5001C53.9994 28.8001 54.4194 26.2801 55.1994 24.0001C57.8394 16.5601 64.5594 12.0001 73.4994 12.0001H112.499C124.199 12.0001 131.999 19.8001 131.999 31.5001Z" stroke="white" stroke-width="9" stroke-miterlimit="10" stroke-linecap="round" stroke-linejoin="round"/>
<path d="M110.97 43.5H111.03M94.1761 43.5H94.2301M77.3701 43.5H77.4301" stroke="white" stroke-width="9" stroke-linecap="round" stroke-linejoin="round"/>
</svg>
