<svg width="33" height="34" viewBox="0 0 33 34" fill="none" xmlns="http://www.w3.org/2000/svg">
<path d="M11.6875 26.4863H11C5.5 26.4863 2.75 25.1113 2.75 18.2363V11.3613C2.75 5.86133 5.5 3.11133 11 3.11133H22C27.5 3.11133 30.25 5.86133 30.25 11.3613V18.2363C30.25 23.7363 27.5 26.4863 22 26.4863H21.3125C20.8862 26.4863 20.4737 26.6926 20.2125 27.0363L18.15 29.7863C17.2425 30.9963 15.7575 30.9963 14.85 29.7863L12.7875 27.0363C12.5675 26.7338 12.0588 26.4863 11.6875 26.4863Z" stroke="#D7263D" stroke-width="2.0625" stroke-miterlimit="10" stroke-linecap="round" stroke-linejoin="round"/>
<path d="M9.625 11.3613H23.375M9.625 18.2363H17.875" stroke="#D7263D" stroke-width="2.0625" stroke-linecap="round" stroke-linejoin="round"/>
</svg>
