<svg width="134" height="134" viewBox="0 0 134 134" fill="none" xmlns="http://www.w3.org/2000/svg">
<path d="M94.7487 80.6233C102.398 81.9075 110.829 80.5675 116.747 76.6033C124.62 71.355 124.62 62.7566 116.747 57.5083C110.773 53.5441 102.23 52.2041 94.5812 53.5441M39.0829 80.6233C31.4337 81.9075 23.0029 80.5675 17.0846 76.6033C9.21205 71.355 9.21205 62.7566 17.0846 57.5083C23.0587 53.5441 31.6012 52.2041 39.2504 53.5441M100.5 39.9766C100.148 39.9208 99.7901 39.9208 99.4387 39.9766C95.7126 39.8419 92.1848 38.2637 89.6009 35.5756C87.017 32.8876 85.5795 29.3002 85.5921 25.5716C85.5921 17.5875 92.0129 11.1666 99.9971 11.1666C103.817 11.1666 107.481 12.6843 110.183 15.3858C112.884 18.0872 114.402 21.7512 114.402 25.5716C114.392 29.3028 112.939 32.8855 110.348 35.5703C107.757 38.2551 104.228 39.834 100.5 39.9766ZM33.332 39.9766C33.667 39.9208 34.0579 39.9208 34.3929 39.9766C38.119 39.8419 41.6468 38.2637 44.2307 35.5756C46.8146 32.8876 48.2521 29.3002 48.2396 25.5716C48.2396 17.5875 41.8187 11.1666 33.8346 11.1666C30.0141 11.1666 26.3501 12.6843 23.6487 15.3858C20.9472 18.0872 19.4296 21.7512 19.4296 25.5716C19.4854 33.3883 25.627 39.6975 33.332 39.9766ZM66.9996 81.6841C66.6482 81.6283 66.2901 81.6283 65.9387 81.6841C62.2126 81.5494 58.6848 79.9712 56.1009 77.2831C53.517 74.5951 52.0795 71.0077 52.0921 67.2791C52.0921 59.295 58.5129 52.8741 66.4971 52.8741C70.3175 52.8741 73.9815 54.3918 76.6829 57.0932C79.3844 59.7947 80.9021 63.4587 80.9021 67.2791C80.8462 75.0958 74.7046 81.4608 66.9996 81.6841ZM50.7521 99.2716C42.8796 104.52 42.8796 113.118 50.7521 118.367C59.6854 124.341 74.3137 124.341 83.2471 118.367C91.1196 113.118 91.1196 104.52 83.2471 99.2716C74.3696 93.3533 59.6854 93.3533 50.7521 99.2716Z" stroke="white" stroke-width="8.375" stroke-linecap="round" stroke-linejoin="round"/>
</svg>
