<svg width="187" height="39" viewBox="0 0 187 39" fill="none" xmlns="http://www.w3.org/2000/svg">
<path d="M22.9692 2.80531L26.4158 9.69865C26.8858 10.6582 28.1392 11.5786 29.1967 11.7549L35.4437 12.7928C39.4387 13.4586 40.3787 16.357 37.5 19.2161L32.6433 24.0728C31.8208 24.8953 31.3704 26.4816 31.625 27.6174L33.0154 33.6295C34.1121 38.3882 31.5858 40.2291 27.3754 37.742L21.52 34.2757C20.4625 33.6491 18.7196 33.6491 17.6425 34.2757L11.7871 37.742C7.59624 40.2291 5.05041 38.3686 6.14708 33.6295L7.53749 27.6174C7.79208 26.4816 7.34166 24.8953 6.51916 24.0728L1.66249 19.2161C-1.19667 16.357 -0.276257 13.4586 3.71874 12.7928L9.96583 11.7549C11.0037 11.5786 12.2571 10.6582 12.7271 9.69865L16.1737 2.80531C18.0537 -0.935104 21.1087 -0.935104 22.9692 2.80531Z" fill="#FFB800"/>
<path d="M71.9692 2.80531L75.4158 9.69865C75.8858 10.6582 77.1392 11.5786 78.1967 11.7549L84.4437 12.7928C88.4387 13.4586 89.3787 16.357 86.5 19.2161L81.6433 24.0728C80.8208 24.8953 80.3704 26.4816 80.625 27.6174L82.0154 33.6295C83.1121 38.3882 80.5858 40.2291 76.3754 37.742L70.52 34.2757C69.4625 33.6491 67.7196 33.6491 66.6425 34.2757L60.7871 37.742C56.5962 40.2291 54.0504 38.3686 55.1471 33.6295L56.5375 27.6174C56.7921 26.4816 56.3417 24.8953 55.5192 24.0728L50.6625 19.2161C47.8033 16.357 48.7237 13.4586 52.7187 12.7928L58.9658 11.7549C60.0037 11.5786 61.2571 10.6582 61.7271 9.69865L65.1737 2.80531C67.0537 -0.935104 70.1087 -0.935104 71.9692 2.80531Z" fill="#FFB800"/>
<path d="M120.969 2.80531L124.416 9.69865C124.886 10.6582 126.139 11.5786 127.197 11.7549L133.444 12.7928C137.439 13.4586 138.379 16.357 135.5 19.2161L130.643 24.0728C129.821 24.8953 129.37 26.4816 129.625 27.6174L131.015 33.6295C132.112 38.3882 129.586 40.2291 125.375 37.742L119.52 34.2757C118.462 33.6491 116.72 33.6491 115.642 34.2757L109.787 37.742C105.596 40.2291 103.05 38.3686 104.147 33.6295L105.537 27.6174C105.792 26.4816 105.342 24.8953 104.519 24.0728L99.6625 19.2161C96.8033 16.357 97.7237 13.4586 101.719 12.7928L107.966 11.7549C109.004 11.5786 110.257 10.6582 110.727 9.69865L114.174 2.80531C116.054 -0.935104 119.109 -0.935104 120.969 2.80531Z" fill="#FFB800"/>
<path d="M169.969 2.80531L173.416 9.69865C173.886 10.6582 175.139 11.5786 176.197 11.7549L182.444 12.7928C186.439 13.4586 187.379 16.357 184.5 19.2161L179.643 24.0728C178.821 24.8953 178.37 26.4816 178.625 27.6174L180.015 33.6295C181.112 38.3882 178.586 40.2291 174.375 37.742L168.52 34.2757C167.462 33.6491 165.72 33.6491 164.642 34.2757L158.787 37.742C154.596 40.2291 152.05 38.3686 153.147 33.6295L154.537 27.6174C154.792 26.4816 154.342 24.8953 153.519 24.0728L148.662 19.2161C145.803 16.357 146.724 13.4586 150.719 12.7928L156.966 11.7549C158.004 11.5786 159.257 10.6582 159.727 9.69865L163.174 2.80531C165.054 -0.935104 168.109 -0.935104 169.969 2.80531Z" fill="#FFB800"/>
</svg>
