<svg width="68" height="68" viewBox="0 0 68 68" fill="none" xmlns="http://www.w3.org/2000/svg">
<g filter="url(#filter0_d_42_1566)">
<circle cx="34" cy="33" r="28.5" fill="white" stroke="#D7263D" stroke-width="3"/>
<path d="M33.5 37.125C34.4614 37.125 35.3834 36.7431 36.0633 36.0633C36.7431 35.3834 37.125 34.4614 37.125 33.5C37.125 32.5386 36.7431 31.6166 36.0633 30.9367C35.3834 30.2569 34.4614 29.875 33.5 29.875C32.5386 29.875 31.6166 30.2569 30.9367 30.9367C30.2569 31.6166 29.875 32.5386 29.875 33.5C29.875 34.4614 30.2569 35.3834 30.9367 36.0633C31.6166 36.7431 32.5386 37.125 33.5 37.125Z" stroke="#D7263D" stroke-width="1.8125" stroke-miterlimit="10" stroke-linecap="round" stroke-linejoin="round"/>
<path d="M21.416 34.5633V32.4367C21.416 31.18 22.4431 30.1408 23.7118 30.1408C25.8989 30.1408 26.7931 28.5942 25.6935 26.6971C25.0652 25.6096 25.4398 24.1958 26.5393 23.5675L28.6298 22.3713C29.5843 21.8033 30.8168 22.1417 31.3848 23.0963L31.5177 23.3258C32.6052 25.2229 34.3935 25.2229 35.4931 23.3258L35.626 23.0963C36.1939 22.1417 37.4264 21.8033 38.381 22.3713L40.4714 23.5675C41.571 24.1958 41.9456 25.6096 41.3173 26.6971C40.2177 28.5942 41.1119 30.1408 43.2989 30.1408C44.5556 30.1408 45.5948 31.1679 45.5948 32.4367V34.5633C45.5948 35.82 44.5677 36.8592 43.2989 36.8592C41.1119 36.8592 40.2177 38.4058 41.3173 40.3029C41.9456 41.4025 41.571 42.8042 40.4714 43.4325L38.381 44.6288C37.4264 45.1967 36.1939 44.8583 35.626 43.9038L35.4931 43.6742C34.4056 41.7771 32.6173 41.7771 31.5177 43.6742L31.3848 43.9038C30.8168 44.8583 29.5843 45.1967 28.6298 44.6288L26.5393 43.4325C26.0126 43.1292 25.6278 42.6294 25.4692 42.0426C25.3106 41.4559 25.3913 40.8302 25.6935 40.3029C26.7931 38.4058 25.8989 36.8592 23.7118 36.8592C22.4431 36.8592 21.416 35.82 21.416 34.5633Z" stroke="#D7263D" stroke-width="1.8125" stroke-miterlimit="10" stroke-linecap="round" stroke-linejoin="round"/>
</g>
<defs>
<filter id="filter0_d_42_1566" x="0" y="0" width="68" height="68" filterUnits="userSpaceOnUse" color-interpolation-filters="sRGB">
<feFlood flood-opacity="0" result="BackgroundImageFix"/>
<feColorMatrix in="SourceAlpha" type="matrix" values="0 0 0 0 0 0 0 0 0 0 0 0 0 0 0 0 0 0 127 0" result="hardAlpha"/>
<feOffset dy="1"/>
<feGaussianBlur stdDeviation="2"/>
<feComposite in2="hardAlpha" operator="out"/>
<feColorMatrix type="matrix" values="0 0 0 0 0 0 0 0 0 0 0 0 0 0 0 0 0 0 0.25 0"/>
<feBlend mode="normal" in2="BackgroundImageFix" result="effect1_dropShadow_42_1566"/>
<feBlend mode="normal" in="SourceGraphic" in2="effect1_dropShadow_42_1566" result="shape"/>
</filter>
</defs>
</svg>
