<svg width="97" height="97" viewBox="0 0 97 97" fill="none" xmlns="http://www.w3.org/2000/svg">
<path d="M77.9256 73.6366C78.2072 73.9183 78.4306 74.2526 78.5831 74.6206C78.7355 74.9885 78.8139 75.3829 78.8139 75.7812C78.8139 76.1795 78.7355 76.5739 78.5831 76.9419C78.4306 77.3099 78.2072 77.6442 77.9256 77.9258C77.644 78.2075 77.3096 78.4309 76.9416 78.5833C76.5737 78.7357 76.1793 78.8142 75.781 78.8142C75.3827 78.8142 74.9883 78.7357 74.6203 78.5833C74.2524 78.4309 73.918 78.2075 73.6364 77.9258L48.4997 52.7854L23.3631 77.9258C22.7943 78.4946 22.0229 78.8142 21.2185 78.8142C20.4141 78.8142 19.6427 78.4946 19.0739 77.9258C18.5051 77.3571 18.1855 76.5856 18.1855 75.7812C18.1855 74.9768 18.5051 74.2054 19.0739 73.6366L44.2143 48.5L19.0739 23.3633C18.5051 22.7945 18.1855 22.0231 18.1855 21.2187C18.1855 20.4143 18.5051 19.6429 19.0739 19.0741C19.6427 18.5053 20.4141 18.1858 21.2185 18.1858C22.0229 18.1858 22.7943 18.5053 23.3631 19.0741L48.4997 44.2145L73.6364 19.0741C74.2052 18.5053 74.9766 18.1858 75.781 18.1858C76.5854 18.1858 77.3568 18.5053 77.9256 19.0741C78.4944 19.6429 78.8139 20.4143 78.8139 21.2187C78.8139 22.0231 78.4944 22.7945 77.9256 23.3633L52.7852 48.5L77.9256 73.6366Z" fill="#D7263D"/>
</svg>
